<svg width="201" height="59" viewBox="0 0 201 59" fill="none" xmlns="http://www.w3.org/2000/svg">
<g clip-path="url(#clip0_79_812)">
<path d="M196.133 0.819458H4.10207C2.28967 0.819458 0.820435 2.28697 0.820435 4.09724V54.9028C0.820435 56.7131 2.28967 58.1806 4.10207 58.1806H196.133C197.946 58.1806 199.415 56.7131 199.415 54.9028V4.09724C199.415 2.28697 197.946 0.819458 196.133 0.819458Z" stroke="black" stroke-width="2"/>
<path d="M71.8813 15.4511C71.8813 16.5801 71.5988 17.568 70.8923 18.2737C70.0445 19.1204 69.0555 19.5438 67.7839 19.5438C66.5123 19.5438 65.5232 19.1204 64.6754 18.2737C63.8277 17.4269 63.4038 16.439 63.4038 15.1689C63.4038 13.8987 63.8277 12.9109 64.6754 12.0641C65.5232 11.2174 66.5123 10.7939 67.7839 10.7939C68.3491 10.7939 68.9142 10.9351 69.4793 11.2174C70.0445 11.4996 70.4684 11.7819 70.751 12.2052L70.0445 12.9108C69.4793 12.2052 68.7729 11.923 67.7839 11.923C66.9361 11.923 66.0883 12.2052 65.5232 12.9108C64.8167 13.4753 64.5342 14.3221 64.5342 15.31C64.5342 16.2979 64.8167 17.1446 65.5232 17.7092C66.2296 18.2737 66.9361 18.697 67.7839 18.697C68.7729 18.697 69.4793 18.4148 70.1859 17.7092C70.6097 17.2857 70.8923 16.7212 70.8923 16.0156H67.7839V15.0278H71.8813C71.8813 15.0278 71.8813 15.1689 71.8813 15.4511Z" fill="black" stroke="black" stroke-width="0.2" stroke-miterlimit="10"/>
<path d="M78.3814 11.923H74.5665V14.6044H78.0988V15.5923H74.5665V18.2737H78.3814V19.2615H73.4362V10.7939H78.3814V11.923Z" fill="black" stroke="black" stroke-width="0.2" stroke-miterlimit="10"/>
<path d="M83.0442 19.2615H81.9135V11.7819H79.5115V10.7939H85.4455V11.7819H83.0442V19.2615Z" fill="black" stroke="black" stroke-width="0.2" stroke-miterlimit="10"/>
<path d="M89.5435 19.2615V10.7939H90.6732V19.2615H89.5435Z" fill="black" stroke="black" stroke-width="0.2" stroke-miterlimit="10"/>
<path d="M95.4774 19.2615H94.3477V11.7819H91.9456V10.7939H97.7385V11.7819H95.3363V19.2615H95.4774Z" fill="black" stroke="black" stroke-width="0.2" stroke-miterlimit="10"/>
<path d="M108.9 18.2737C108.053 19.1204 107.063 19.5438 105.792 19.5438C104.52 19.5438 103.531 19.1204 102.683 18.2737C101.836 17.4269 101.411 16.439 101.411 15.1689C101.411 13.8987 101.836 12.9109 102.683 12.0641C103.531 11.2174 104.52 10.7939 105.792 10.7939C107.063 10.7939 108.053 11.2174 108.9 12.0641C109.748 12.9109 110.172 13.8987 110.172 15.1689C110.172 16.2979 109.748 17.4269 108.9 18.2737ZM103.531 17.568C104.097 18.1326 104.944 18.5559 105.792 18.5559C106.64 18.5559 107.487 18.2737 108.053 17.568C108.618 17.0035 109.041 16.1568 109.041 15.1689C109.041 14.181 108.759 13.3342 108.053 12.7697C107.487 12.2052 106.64 11.7819 105.792 11.7819C104.944 11.7819 104.097 12.0641 103.531 12.7697C102.966 13.3342 102.542 14.181 102.542 15.1689C102.542 16.0156 102.825 16.8624 103.531 17.568Z" fill="black" stroke="black" stroke-width="0.2" stroke-miterlimit="10"/>
<path d="M111.726 19.2615V10.7939H112.998L117.095 17.4269V15.7334V10.7939H118.226V19.2615H117.095L112.715 12.3464V14.0398V19.2615H111.726Z" fill="black" stroke="black" stroke-width="0.2" stroke-miterlimit="10"/>
<path d="M101.128 31.6805C97.7376 31.6805 95.0533 34.2208 95.0533 37.749C95.0533 41.136 97.7376 43.8174 101.128 43.8174C104.519 43.8174 107.204 41.2771 107.204 37.749C107.204 34.2208 104.519 31.6805 101.128 31.6805ZM101.128 41.2771C99.2915 41.2771 97.7376 39.7248 97.7376 37.6079C97.7376 35.4909 99.2915 33.9386 101.128 33.9386C102.965 33.9386 104.519 35.3498 104.519 37.6079C104.519 39.8659 102.965 41.2771 101.128 41.2771ZM87.9879 31.6805C84.5972 31.6805 81.9127 34.2208 81.9127 37.749C81.9127 41.136 84.5972 43.8174 87.9879 43.8174C91.3795 43.8174 94.0639 41.2771 94.0639 37.749C94.0639 34.2208 91.3795 31.6805 87.9879 31.6805ZM87.9879 41.2771C86.1518 41.2771 84.5972 39.7248 84.5972 37.6079C84.5972 35.4909 86.1518 33.9386 87.9879 33.9386C89.8248 33.9386 91.3795 35.3498 91.3795 37.6079C91.3795 39.8659 89.8248 41.2771 87.9879 41.2771ZM72.3048 33.5152V36.0554H78.3804C78.2391 37.4668 77.6739 38.5957 76.9675 39.3013C76.1197 40.1481 74.7067 41.136 72.3048 41.136C68.4899 41.136 65.664 38.1723 65.664 34.362C65.664 30.5516 68.6312 27.5879 72.3048 27.5879C74.2829 27.5879 75.8371 28.4346 76.9675 29.4225L78.8043 27.5879C77.25 26.1766 75.2719 25.0476 72.4461 25.0476C67.3596 25.0476 62.9795 29.2814 62.9795 34.362C62.9795 39.4425 67.3596 43.6763 72.4461 43.6763C75.2719 43.6763 77.25 42.8295 78.9455 40.9949C80.6411 39.3013 81.2062 36.9022 81.2062 35.0676C81.2062 34.5031 81.2062 33.9386 81.0649 33.5152H72.3048ZM136.452 35.4909C135.887 34.0797 134.473 31.6805 131.365 31.6805C128.257 31.6805 125.714 34.0797 125.714 37.749C125.714 41.136 128.257 43.8174 131.648 43.8174C134.332 43.8174 136.028 42.1239 136.593 41.136L134.615 39.7248C133.909 40.7126 133.06 41.4182 131.648 41.4182C130.235 41.4182 129.387 40.8538 128.68 39.5836L136.734 36.1966L136.452 35.4909ZM128.257 37.4668C128.257 35.2087 130.094 33.9386 131.365 33.9386C132.354 33.9386 133.343 34.5031 133.626 35.2087L128.257 37.4668ZM121.616 43.2529H124.3V25.6121H121.616V43.2529ZM117.377 32.9507C116.67 32.245 115.541 31.5394 114.127 31.5394C111.16 31.5394 108.334 34.2208 108.334 37.6079C108.334 40.9949 111.019 43.5352 114.127 43.5352C115.541 43.5352 116.67 42.8295 117.235 42.1239H117.377V42.9707C117.377 45.2286 116.106 46.4988 114.127 46.4988C112.573 46.4988 111.443 45.3698 111.16 44.3819L108.899 45.3698C109.606 46.9222 111.301 48.8979 114.269 48.8979C117.377 48.8979 119.921 47.0633 119.921 42.6884V31.9628H117.377V32.9507ZM114.269 41.2771C112.432 41.2771 110.877 39.7248 110.877 37.6079C110.877 35.4909 112.432 33.9386 114.269 33.9386C116.106 33.9386 117.519 35.4909 117.519 37.6079C117.519 39.7248 116.106 41.2771 114.269 41.2771ZM148.744 25.6121H142.386V43.2529H145.07V36.62H148.744C151.711 36.62 154.537 34.5031 154.537 31.1161C154.537 27.729 151.711 25.6121 148.744 25.6121ZM148.885 34.2208H145.07V28.1524H148.885C150.863 28.1524 151.994 29.8459 151.994 31.1161C151.853 32.5273 150.722 34.2208 148.885 34.2208ZM165.134 31.6805C163.155 31.6805 161.177 32.5273 160.471 34.362L162.873 35.3498C163.438 34.362 164.286 34.0797 165.275 34.0797C166.688 34.0797 167.96 34.9265 168.101 36.3377V36.4789C167.677 36.1966 166.547 35.7732 165.416 35.7732C162.873 35.7732 160.33 37.1845 160.33 39.7248C160.33 42.1239 162.449 43.6763 164.71 43.6763C166.547 43.6763 167.394 42.8295 168.101 41.9828H168.242V43.3941H170.785V36.62C170.503 33.3741 168.101 31.6805 165.134 31.6805ZM164.851 41.2771C164.004 41.2771 162.732 40.8538 162.732 39.7248C162.732 38.3135 164.286 37.8901 165.558 37.8901C166.688 37.8901 167.253 38.1724 167.96 38.4546C167.677 40.1482 166.264 41.2771 164.851 41.2771ZM179.687 31.9628L176.72 39.5836H176.579L173.47 31.9628H170.644L175.307 42.6884L172.622 48.6157H175.307L182.513 31.9628H179.687ZM155.95 43.2529H158.634V25.6121H155.95V43.2529Z" fill="black"/>
<path d="M18.8967 46.7811C18.3315 46.4989 18.049 45.7932 18.049 45.0876C18.049 44.9464 18.049 44.6642 18.049 44.5231C18.049 34.0798 18.049 23.6364 18.049 13.3341C18.049 12.7696 18.1902 12.3463 18.3315 11.7818C18.4729 11.4995 18.7554 11.2173 19.038 10.9351C25.1136 17.0035 31.0478 23.0718 36.9821 29.1403C30.9066 34.7853 24.9723 40.7127 18.8967 46.7811Z" fill="black"/>
<path d="M42.9161 22.9308C41.2206 24.6244 39.3838 26.3178 37.6883 28.1525C32.0366 22.3663 26.2436 16.5801 20.5919 10.7939C20.5919 10.7939 20.5919 10.6528 20.7332 10.6528C28.0804 14.7455 35.4276 18.8382 42.9161 22.9308Z" fill="black"/>
<path d="M20.5919 46.7811C26.2436 41.136 32.0366 35.491 37.6883 29.8459C39.2425 31.3983 40.938 32.9507 42.7749 34.6442C35.4276 38.7369 28.0804 42.8296 20.7332 46.7811H20.5919Z" fill="black"/>
<path d="M43.7645 34.0797C41.9277 32.3862 40.2322 30.6927 38.3954 28.9992C40.2322 27.1645 42.069 25.3299 43.9057 23.4952C44.4709 23.7775 45.0361 24.0598 45.6013 24.4831C47.0142 25.3299 48.5684 26.0355 49.9814 26.8822C50.4053 27.0234 50.6878 27.3057 50.9704 27.729C51.5355 28.4346 51.5355 29.1403 50.9704 29.8459C50.6878 30.1281 50.4053 30.4104 49.9814 30.5516C48.0033 31.8217 45.8839 32.9507 43.7645 34.0797Z" fill="black"/>
</g>
<defs>
<clipPath id="clip0_79_812">
<rect width="201" height="59" fill="white"/>
</clipPath>
</defs>
</svg>
