<svg width="48" height="48" viewBox="0 0 48 48" fill="none" xmlns="http://www.w3.org/2000/svg">
<path d="M0 24C0 37.2548 10.7452 48 24 48C37.2548 48 48 37.2548 48 24C48 10.7452 37.2548 0 24 0C10.7452 0 0 10.7452 0 24Z" fill="#2867B2"/>
<path d="M17.4 36H12.3V19.95H17.4V36ZM14.85 17.7C13.2 17.7 12 16.5 12 14.85C12 13.2 13.35 12 14.85 12C16.5 12 17.7 13.2 17.7 14.85C17.7 16.5 16.5 17.7 14.85 17.7ZM36 36H30.9V27.3C30.9 24.75 29.85 24 28.35 24C26.85 24 25.35 25.2 25.35 27.45V36H20.25V19.95H25.05V22.2C25.5 21.15 27.3 19.5 29.85 19.5C32.7 19.5 35.7 21.15 35.7 26.1V36H36Z" fill="white"/>
</svg>
