<svg width="48" height="48" viewBox="0 0 48 48" fill="none" xmlns="http://www.w3.org/2000/svg">
<path d="M0 24C0 37.2548 10.7452 48 24 48C37.2548 48 48 37.2548 48 24C48 10.7452 37.2548 0 24 0C10.7452 0 0 10.7452 0 24Z" fill="black"/>
<path d="M26.2833 22.1624L35.2178 12H33.1006L25.3427 20.8238L19.1466 12H12L21.3698 25.3432L12 36H14.1173L22.3098 26.6817L28.8534 36H36L26.2827 22.1624H26.2833ZM23.3833 25.4608L22.4339 24.1321L14.8802 13.5596H18.1323L24.2282 22.0919L25.1776 23.4206L33.1016 34.5113H29.8495L23.3833 25.4613V25.4608Z" fill="white"/>
</svg>
